<svg width="176" height="175" viewBox="0 0 176 175" fill="none" xmlns="http://www.w3.org/2000/svg">
<circle cx="88" cy="87.5" r="87" stroke="black"/>
<mask id="mask0_5939_954" style="mask-type:alpha" maskUnits="userSpaceOnUse" x="0" y="0" width="176" height="175">
<circle cx="88" cy="87.5" r="87.5" fill="#D9D9D9"/>
</mask>
<g mask="url(#mask0_5939_954)">
<path d="M48.8502 97.6967C51.6688 102.47 55.6016 106.475 58.8862 110.941C64.427 118.475 68.1015 127.369 69.4964 136.616C70.4466 142.912 70.8441 150.272 76.0463 153.943C78.671 155.796 82.0167 156.251 85.2263 156.435C88.7616 156.639 92.6719 156.449 95.2816 154.054C98.639 150.973 98.413 145.753 98.6926 141.206C99.3986 129.732 104.845 119.185 108.797 108.389C114.004 94.1667 116.702 79.0292 116.732 63.8831C116.744 57.7606 116.109 51.1057 111.955 46.6073C108.486 42.8502 103.231 41.3611 98.1859 40.5244C84.034 38.1772 64.2963 40.3337 57.2214 54.6774C51.4256 66.4296 41.8267 85.7999 48.8502 97.6967Z" fill="#FFE7FB"/>
<path d="M41.0847 185.001C44.5783 172.864 53.8547 161.526 66.3118 159.447C69.1133 158.98 72.084 159.009 74.6765 160.168C76.4238 160.949 77.9097 162.2 79.5135 163.245C83.4205 165.79 88.1118 167.112 92.7741 166.981C99.1516 166.803 105.423 163.996 111.729 164.974C119.873 166.238 125.757 173.448 129.505 180.788C136.197 193.901 138.647 209.137 136.403 223.686C136.142 225.358 65.9251 223.351 59.3408 223.311C50.8197 223.262 43.2627 224.002 39.8645 215.012C36.6195 206.427 38.6572 193.438 41.0847 185.001Z" fill="#C3C62B"/>
<path d="M122.859 83.9242C120.006 89.7746 118.941 96.4831 119.839 102.931C124.124 104.243 128.577 101.657 132.084 98.8678C134.383 97.038 136.628 94.9961 137.91 92.3521C139.195 89.7082 139.33 86.3271 137.559 83.982C135.931 81.8266 133.025 80.9567 130.327 81.112C127.631 81.2674 125.072 82.2947 122.568 83.3082" fill="#FFE7FB"/>
<path d="M88.9908 102.752C89.3304 102.832 88.1605 107.182 83.2475 107.1C78.3345 107.019 74.7317 108.983 74.8142 117.582L72.6598 116.27C72.6598 116.27 68.1217 97.8311 88.9908 102.752Z" fill="black"/>
<path d="M89.1007 102.752C88.76 102.832 89.9298 107.182 94.8428 107.1C99.7558 107.019 103.359 108.983 103.277 117.582L105.432 116.27C105.432 116.27 109.969 97.8311 89.1007 102.752Z" fill="black"/>
<path d="M55.0682 66.7737C55.0682 66.7737 54.8753 78.9748 57.3501 92.8493C59.5784 105.341 63.96 119.182 72.584 126.681C76.58 130.151 81.4758 132.263 87.4858 132.272C92.2639 132.272 96.3884 131.352 99.9451 129.713C100.749 129.348 101.52 128.942 102.259 128.501C102.506 128.363 102.752 128.212 102.988 128.051C103.48 127.752 103.952 127.43 104.412 127.088C104.605 126.949 104.787 126.81 104.98 126.669C105.248 126.456 105.516 126.253 105.773 126.028C106.202 125.674 106.619 125.309 107.026 124.924C107.476 124.505 107.926 124.067 108.355 123.606C108.698 123.242 109.04 122.855 109.373 122.471C109.405 122.439 109.437 122.396 109.469 122.363C109.769 122.01 110.058 121.645 110.337 121.282C110.38 121.239 110.422 121.185 110.455 121.142C116.282 113.558 119.218 103.187 120.632 93.5231C120.643 93.4921 120.643 93.4803 120.643 93.4803C122.71 79.3498 121.553 66.7737 121.553 66.7737" stroke="black" stroke-miterlimit="10"/>
<path d="M76.1084 129.08L76.0977 129.22L74.9407 141.411L73.9765 151.598L58.8497 161.081L53.0325 164.734C52.4004 165.13 51.7791 165.537 51.1684 165.966C40.8304 173.111 33.5669 183.931 30.8887 196.261L25.5 221.041" stroke="black" stroke-miterlimit="10"/>
<path d="M99.9453 129.713L100.267 133.109L102.024 151.598L118.961 162.226L122.968 164.733C124.232 165.525 125.464 166.371 126.642 167.283C136.016 174.397 142.594 184.66 145.111 196.261L150.5 221.041" stroke="black" stroke-miterlimit="10"/>
<path d="M56.0962 85.781C56.0962 85.781 48.5618 75.1816 44.1469 79.6714C39.7331 84.1612 46.687 107.432 59.6701 105.448" stroke="black" stroke-miterlimit="10"/>
<path d="M121.571 85.4787C121.571 85.4787 128.746 74.6328 133.308 78.9716C137.871 83.3103 131.701 106.802 118.659 105.255" stroke="black" stroke-miterlimit="10"/>
<path d="M48.9431 89.0945C48.9431 89.0945 55.0142 89.4544 57.3464 94.4114" stroke="black" stroke-miterlimit="10"/>
<path d="M51.9062 94.1083C51.9062 94.1083 52.2116 92.0439 56.0876 92.5002" stroke="black" stroke-miterlimit="10"/>
<path d="M128.971 88.5534C128.971 88.5534 122.915 89.1158 120.75 94.1477" stroke="black" stroke-miterlimit="10"/>
<path d="M126.178 93.6634C126.178 93.6634 125.804 91.6097 121.944 92.1968" stroke="black" stroke-miterlimit="10"/>
<path d="M120.751 87.4038C120.751 87.4038 116.984 85.7658 116.984 81.8352C116.984 77.9046 118.949 70.8629 116.329 66.7684C113.71 62.6749 109.942 58.9082 109.942 58.9082C109.942 58.9082 87.1788 53.3407 61.3036 62.0193C61.3036 62.0193 57.4984 65.5075 58.5193 72.276C60.9758 88.5534 56.3424 87.466 56.3424 87.466C56.3424 87.466 48.9429 76.7583 51.2462 66.1963C51.2462 66.1963 37.3611 52.9582 47.9573 32.296C59.671 9.45042 100.059 11.1463 113.817 26.2838C124.862 38.4378 120.751 46.4618 120.751 46.4618C120.751 46.4618 136.475 60.5463 120.751 87.4038Z" fill="black"/>
<path d="M67.6158 56.1226C65.5471 53.6125 63.9648 50.7136 62.7317 47.685C61.4997 44.649 60.7509 41.4093 60.4852 38.1301C60.3053 36.4899 60.4252 34.8401 60.4766 33.1956C60.7573 31.5726 60.8591 29.9164 61.4087 28.3566C61.6583 27.5734 61.8136 26.7635 62.1393 26.0104L63.096 23.75C63.3906 22.9861 63.847 22.3015 64.2594 21.5998C64.6729 20.8981 65.0983 20.2061 65.5279 19.5204C64.1587 22.4622 62.7982 25.3955 62.2079 28.5548C61.789 30.0985 61.7011 31.7012 61.488 33.276C61.4719 34.869 61.3594 36.461 61.5523 38.0476C61.7847 41.2229 62.4768 44.3629 63.4999 47.399C64.0291 48.9117 64.6183 50.4083 65.3222 51.8567C65.9735 53.3329 66.7673 54.7396 67.6158 56.1226Z" fill="white"/>
<path d="M74.9819 15.8913C73.8635 17.7243 73.1575 19.7362 72.549 21.7492C71.9715 23.7772 71.5837 25.8523 71.3352 27.9446L71.1606 29.5162L71.0684 31.0974C70.9624 32.1516 71.017 33.2111 70.9699 34.2717C70.9624 35.3323 71.0192 36.3939 71.0224 37.461C71.0609 38.5269 71.1552 39.5907 71.1702 40.6695C70.9142 39.6271 70.717 38.5708 70.4996 37.5135C70.3699 36.4464 70.1996 35.3784 70.1343 34.3006C69.9982 32.1473 70.0046 29.9725 70.2714 27.8171C70.5478 25.667 70.9967 23.5276 71.7573 21.4889C72.5158 19.462 73.5239 17.4844 74.9819 15.8913Z" fill="white"/>
<path d="M73.6259 28.281C73.4952 27.1208 73.5412 25.9584 73.6644 24.8057C73.7812 23.6519 74.0126 22.5099 74.334 21.3882C74.6725 20.2719 75.0807 19.1642 75.6935 18.1497C76.2891 17.1394 77.0508 16.1742 78.0525 15.5614C77.3604 16.5009 76.8751 17.4983 76.4413 18.5225C76.0138 19.5477 75.6699 20.6115 75.3625 21.6882C74.7143 23.8383 74.2483 26.0441 73.6259 28.281Z" fill="white"/>
<path d="M87.5576 28.2809C87.473 30.6067 87.3209 32.9057 87.3562 35.2037C87.3937 37.4995 87.5084 39.7867 87.8105 42.0504C88.1147 44.313 88.6236 46.5349 89.2846 48.7192C89.6638 49.7927 90.0238 50.8822 90.5423 51.9042C90.944 52.9916 91.604 53.9333 92.1203 54.9842C90.6151 53.2144 89.3939 51.1811 88.509 48.9999C87.6412 46.8145 87.0852 44.5144 86.7477 42.1918C86.466 39.8617 86.3771 37.5123 86.5356 35.1823C86.6063 34.0167 86.7359 32.8565 86.8956 31.7037C87.0841 30.5532 87.308 29.4133 87.5576 28.2809Z" fill="white"/>
<path d="M82.8464 57.5541C82.8464 57.5541 73.7499 60.4637 76.8203 66.7684C76.8203 66.7684 69.9565 56.1592 82.8464 57.5541Z" fill="black"/>
<path d="M64.2512 75.7554C64.8019 75.0484 65.4146 74.5577 66.0371 74.0831L67.9033 74.1581C69.1449 74.231 70.3844 74.3724 71.6196 74.5834C72.857 74.7902 74.0858 75.1062 75.3017 75.493C75.9059 75.7019 76.5112 75.9129 77.1026 76.1829C77.5075 76.8664 77.845 77.6184 78.0539 78.4433C77.2033 78.7369 76.5198 78.8772 75.8149 79.129C75.3274 78.9029 74.8111 78.724 74.2947 78.5451C73.2491 78.2141 72.1746 77.9334 71.069 77.7502C69.9656 77.5617 68.845 77.4331 67.7169 77.3667C67.1523 77.3431 66.5877 77.2992 66.0253 77.3292C65.4597 76.846 64.8854 76.3854 64.2512 75.7554Z" fill="black"/>
<path d="M72.6606 84.9979C72.6606 86.727 71.7811 88.1293 70.6948 88.1293C69.6095 88.1293 68.73 86.727 68.73 84.9979C68.73 83.2677 69.6095 81.8654 70.6948 81.8654C71.7811 81.8654 72.6606 83.2677 72.6606 84.9979Z" fill="black"/>
<path d="M111.118 74.9572C110.495 75.5904 109.952 76.0735 109.425 76.576C108.879 76.5695 108.333 76.6413 107.788 76.6992C106.698 76.832 105.618 77.0548 104.567 77.3559C103.514 77.6494 102.489 78.0297 101.515 78.5032C101.02 78.7261 100.549 78.9907 100.084 79.2639C99.3586 79.1032 98.6569 79.0485 97.7827 78.8461C97.8995 78.0062 98.1341 77.2273 98.4437 76.4999C98.9954 76.1764 99.5536 75.8657 100.133 75.6021C101.279 75.0461 102.473 74.6037 103.69 74.2641C104.905 73.917 106.142 73.662 107.392 73.5099C108.017 73.4274 108.646 73.3942 109.277 73.3331C109.928 73.7841 110.566 74.2534 111.118 74.9572Z" fill="black"/>
<path d="M103.011 84.9979C103.011 86.727 103.891 88.1293 104.976 88.1293C106.062 88.1293 106.942 86.727 106.942 84.9979C106.942 83.2677 106.062 81.8654 104.976 81.8654C103.891 81.8654 103.011 83.2677 103.011 84.9979Z" fill="black"/>
<path d="M85.327 83.5903C85.4502 84.081 85.6955 91.5105 82.1345 99.8024C82.1345 99.8024 85.8884 102.307 90.4328 99.5238" stroke="black" stroke-miterlimit="10"/>
<path d="M80.7319 109.714C80.7319 109.714 88.9992 111.494 97.7839 110.192" stroke="black" stroke-miterlimit="10"/>
<path d="M85.4294 113.472C85.4294 113.472 90.0992 114.25 92.5525 112.941" stroke="black" stroke-miterlimit="10"/>
<path d="M120.632 93.5234C119.218 103.188 116.283 113.558 110.455 121.143C107.659 124.764 104.209 127.753 99.9454 129.713C96.3887 131.352 92.2641 132.272 87.4861 132.272C81.4761 132.263 76.5802 130.151 72.5843 126.681C63.9603 119.182 59.5787 105.341 57.3503 92.8495C57.3503 92.8495 63.0604 106.487 67.1207 111.147C71.1702 115.818 75.1769 119.417 89.4466 119.664C103.716 119.417 107.734 115.818 111.783 111.147C115.704 106.637 120.343 94.284 120.632 93.5234Z" fill="black"/>
<path d="M73.9734 151.599L90.4329 169.123L102.027 151.599" stroke="black" stroke-miterlimit="10"/>
<path d="M67.739 155.51L75.387 171.251L85.889 164.284" stroke="black" stroke-miterlimit="10"/>
<path d="M94.8003 162.522L103.719 171.251L111.346 157.443" stroke="black" stroke-miterlimit="10"/>
<path d="M90.4331 169.123H94.7997C94.7997 169.123 95.6943 177.147 91.2719 178.621L90.4331 221.036" stroke="black" stroke-miterlimit="10"/>
<path d="M62.4383 221.042H53.9215L51.1682 165.966C51.7789 165.537 52.4002 165.13 53.0323 164.734L58.8495 161.081L62.4383 221.042Z" fill="black"/>
<path d="M126.642 167.283L123.963 221.041H115.447L118.96 162.227L122.967 164.734C124.231 165.525 125.463 166.372 126.642 167.283Z" fill="black"/>
<path d="M100.267 133.109C91.3964 136.076 79.6656 139.89 74.9412 141.411L76.0982 129.22C79.3656 131.159 83.1366 132.262 87.4861 132.272C92.2641 132.272 96.3887 131.352 99.9454 129.713L100.267 133.109Z" fill="black"/>
</g>
</svg>
